<?xml version="1.0" encoding="UTF-8" standalone="no"?> <svg xmlns:dc="http://purl.org/dc/elements/1.1/" xmlns:cc="http://creativecommons.org/ns#" xmlns:rdf="http://www.w3.org/1999/02/22-rdf-syntax-ns#" xmlns:svg="http://www.w3.org/2000/svg" xmlns="http://www.w3.org/2000/svg" viewBox="0 0 377.95279 94.488136" height="94.488136" width="377.95279" xml:space="preserve" id="svg2" version="1.1"><metadata id="metadata8"></metadata><defs id="defs6"></defs><g transform="matrix(1.3333333,0,0,-1.3333333,0,94.488133)" id="g10"><path id="path12" style="fill:#35312f;fill-opacity:1;fill-rule:nonzero;stroke:none" d="m 76.7203,13.8288 -8.4229,15.4273 h -6.2666 c -0.3937,0 -0.7761,0.0275 -1.1494,0.0782 L 70.4696,11.772 h 140.8158 v 2.0568 z"></path><path id="path14" style="fill:#3a3682;fill-opacity:1;fill-rule:nonzero;stroke:none" d="m 7.0866,32.9992 h 3.0988 V 47.785 H 7.0866 Z m 58.9431,8.1933 c 0.3512,0.2906 0.7687,0.5182 1.2418,0.6766 0.4697,0.1557 0.9831,0.235 1.5265,0.235 h 6.2045 l 2.0225,2.6272 h -8.227 c -1.0318,0 -1.9987,-0.1403 -2.8755,-0.4187 -0.8682,-0.2755 -1.6254,-0.6729 -2.2513,-1.1818 -0.6216,-0.5054 -1.1157,-1.1179 -1.4703,-1.8192 -0.3515,-0.6985 -0.5295,-1.4809 -0.5295,-2.3264 0,-0.8482 0.1789,-1.6436 0.5315,-2.3664 0.3546,-0.7271 0.8504,-1.364 1.4737,-1.8944 0.6256,-0.5329 1.3842,-0.9578 2.2544,-1.2628 0.8722,-0.307 1.8363,-0.4624 2.867,-0.4624 h 8.1555 v 7.115 h -7.452 l -1.8031,-2.1671 h 6.0395 V 35.5895 H 68.798 c -0.5545,0 -1.0726,0.0763 -1.5412,0.2254 -0.472,0.1508 -0.8901,0.3682 -1.2402,0.646 -0.3574,0.2835 -0.638,0.6285 -0.8336,1.0273 -0.1968,0.3997 -0.2963,0.8478 -0.2963,1.3311 0,0.4856 0.1038,0.9338 0.3076,1.3349 0.201,0.3951 0.4822,0.7444 0.8354,1.0383 z M 49.712,37.8374 h 7.7069 l 1.7402,2.2221 H 49.712 v 2.0446 h 8.1102 l 2.0231,2.6272 H 46.4596 V 32.9992 h 11.4176 l 2.0041,2.5903 H 49.712 Z m 43.6822,-1.929 c -0.2469,0.2342 -0.4739,0.432 -0.6761,0.5871 l -0.5045,0.3872 0.6244,0.1216 c 0.4678,0.091 0.891,0.2492 1.2592,0.4703 0.3682,0.2202 0.6831,0.4921 0.9363,0.8073 0.2525,0.3146 0.4504,0.6752 0.5862,1.0715 0.1366,0.3974 0.2052,0.824 0.2052,1.2688 0,0.8175 -0.1837,1.4927 -0.5448,2.0052 -0.3719,0.525 -0.8493,0.9473 -1.4199,1.256 -0.5816,0.3141 -1.2396,0.5358 -1.9542,0.6591 -0.7299,0.1253 -1.4431,0.1888 -2.122,0.1888 h -7.7681 l -2.0386,-2.6272 h 10.1202 c 0.7152,0 1.2878,-0.1358 1.7008,-0.4048 0.453,-0.2936 0.6829,-0.737 0.6829,-1.3161 0,-0.5346 -0.2509,-0.9572 -0.7455,-1.2569 -0.4482,-0.2718 -0.9995,-0.4099 -1.6382,-0.4099 H 79.6788 v -5.7172 h 3.2337 v 3.2556 h 6.2697 l 2.7405,-3.2556 h 4.2954 l -1.8046,1.908 c -0.4184,0.4179 -0.7616,0.7552 -1.0193,1.0012 z m -69.099,1.2385 -8.0189,7.1977 c -0.2778,0.2551 -0.5185,0.4179 -0.7181,0.4839 -0.4291,0.1437 -0.8682,0.14 -1.3076,-0.0082 -0.2092,-0.0714 -0.3963,-0.1854 -0.5542,-0.339 -0.1604,-0.1545 -0.2919,-0.362 -0.3926,-0.6169 -0.1026,-0.259 -0.155,-0.5757 -0.155,-0.9428 v -9.9224 h 2.8848 v 7.5847 l 8.0198,-7.198 c 0.267,-0.2554 0.5012,-0.4178 0.699,-0.4839 0.4292,-0.1423 0.8915,-0.14 1.3365,0.0088 0.2135,0.0712 0.4011,0.1874 0.559,0.3453 0.1616,0.1607 0.2946,0.373 0.396,0.6293 0.1024,0.259 0.1548,0.5768 0.1548,0.9425 v 9.9034 h -2.9035 z m 4.8574,4.9572 h 5.4805 v -9.1049 h 3.2335 v 9.1049 h 4.5414 l 2.0239,2.6272 H 31.1763 Z M 151.6643,37.148 c -0.2078,-0.466 -0.5488,-0.8356 -1.0122,-1.0978 -0.4411,-0.2509 -1.0191,-0.4207 -1.7161,-0.504 -0.6682,-0.0805 -1.497,-0.1216 -2.4625,-0.1216 -0.9655,0 -1.7943,0.0411 -2.4624,0.1216 -0.6971,0.0833 -1.2745,0.2531 -1.7161,0.504 -0.4629,0.2622 -0.8039,0.6318 -1.0126,1.0978 -0.1995,0.4451 -0.3007,1.0262 -0.3007,1.7263 0,0.7002 0.1012,1.281 0.3007,1.7269 0.2098,0.4671 0.5508,0.8342 1.0157,1.0899 0.4408,0.2438 1.0165,0.4102 1.713,0.4941 0.6718,0.0802 1.5,0.1216 2.4624,0.1216 0.9624,0 1.7907,-0.0414 2.4625,-0.1216 0.6964,-0.0839 1.2727,-0.2497 1.7135,-0.4941 0.4643,-0.2557 0.8062,-0.6228 1.0148,-1.0899 0.1999,-0.4459 0.3011,-1.0261 0.3011,-1.7269 0,-0.7001 -0.1012,-1.2812 -0.3011,-1.7263 z m 1.3898,6.3083 c -1.4473,0.9802 -3.6606,1.4779 -6.5806,1.4779 -2.9313,0 -5.1483,-0.4972 -6.5891,-1.4774 -1.4063,-0.9564 -2.1189,-2.4982 -2.1189,-4.5825 0,-2.0965 0.7098,-3.6442 2.1101,-4.6006 1.4343,-0.9794 3.6541,-1.4766 6.5979,-1.4766 2.9319,0 5.1486,0.4972 6.5897,1.4775 1.4057,0.9564 2.1183,2.5038 2.1183,4.5997 0,2.0832 -0.7157,3.6255 -2.1274,4.582 z m 15.7238,1.275 v -7.5844 l -8.0198,7.1977 c -0.2778,0.2557 -0.5193,0.4179 -0.7174,0.4839 -0.4286,0.1437 -0.8683,0.14 -1.3076,-0.0082 -0.2098,-0.0714 -0.3969,-0.186 -0.5548,-0.339 -0.1604,-0.1545 -0.2919,-0.3623 -0.3926,-0.6169 -0.1026,-0.259 -0.1545,-0.5768 -0.1545,-0.9428 v -9.9224 h 2.8849 v 7.5847 l 8.0197,-7.198 c 0.2671,-0.2554 0.5012,-0.4184 0.6991,-0.4839 0.4283,-0.1429 0.8909,-0.1394 1.3359,0.0088 0.2135,0.0717 0.4023,0.1874 0.5599,0.3453 0.1613,0.1607 0.2936,0.373 0.3954,0.6287 0.1026,0.2596 0.1551,0.5768 0.1551,0.9431 v 9.9034 z m -59.8507,-0.1429 c -0.3362,0.2288 -0.7682,0.3458 -1.2818,0.3458 -0.5372,0 -0.9822,-0.1247 -1.3229,-0.3696 -0.366,-0.2628 -0.6724,-0.563 -0.9102,-0.8915 l -7.568,-10.6739 h 3.8033 l 5.9292,8.3838 2.4398,-3.598 c 0.2055,-0.2909 0.424,-0.6089 0.6528,-0.9482 0.2219,-0.33 0.4189,-0.6066 0.5865,-0.8218 l 0.4005,-0.5162 -0.6508,0.055 c -0.2866,0.0238 -0.6279,0.0357 -1.0154,0.0357 h -4.0938 l -1.8828,-2.5903 h 13.2013 l -7.3778,10.6787 c -0.2486,0.3617 -0.5547,0.6673 -0.9099,0.9105 z m 5.6826,-2.4843 h 5.6169 V 20.9404 h 2.9857 v 21.1637 h 4.6531 l 2.1603,2.6272 h -13.256 z m 17.3622,-9.1049 h 3.2338 v 11.7321 h -3.2338 z"></path><path id="path16" style="fill:#3a3682;fill-opacity:1;fill-rule:nonzero;stroke:none" d="m 120.2267,20.9404 h 2.9857 v 17.9665 h -2.9857 z m 11.7453,12.0588 h 3.2338 v 5.9077 h -3.2338 z m 19.9922,5.9077 c 0,-0.011 0.001,-0.0207 0.001,-0.0326 0,-0.7001 -0.1012,-1.2812 -0.3011,-1.7263 -0.2078,-0.466 -0.5488,-0.8356 -1.0122,-1.0978 -0.4411,-0.2509 -1.0191,-0.4207 -1.7161,-0.504 -0.6682,-0.0805 -1.497,-0.1216 -2.4625,-0.1216 -0.9655,0 -1.7943,0.0411 -2.4624,0.1216 -0.6971,0.0833 -1.2745,0.2531 -1.7161,0.504 -0.4629,0.2622 -0.8039,0.6318 -1.0126,1.0978 -0.1995,0.4451 -0.3007,1.0262 -0.3007,1.7263 0,0.0119 10e-4,0.0216 10e-4,0.0326 h -3.2156 c 0,-0.011 -0.002,-0.0212 -0.002,-0.0326 0,-2.0965 0.7098,-3.6442 2.1101,-4.6006 1.4343,-0.9794 3.6541,-1.4766 6.5979,-1.4766 2.9319,0 5.1486,0.4972 6.5897,1.4775 1.4057,0.9564 2.1183,2.5038 2.1183,4.5997 0,0.0114 -0.001,0.0216 -0.001,0.0326 h -3.2162 z m 16.8137,0 v -1.76 l -1.9618,1.76 h -4.4323 l 6.152,-5.521 c 0.2671,-0.2554 0.5012,-0.4184 0.6991,-0.4839 0.4283,-0.1429 0.8909,-0.1394 1.3359,0.0088 0.2135,0.0717 0.4023,0.1874 0.5599,0.3453 0.1613,0.1607 0.2936,0.373 0.3954,0.6287 0.1026,0.2596 0.1551,0.5768 0.1551,0.9431 v 4.079 z m -11.1467,-5.9077 h 2.8849 v 5.9077 h -2.8849 z m -48.3763,5.9077 0.7617,-1.1219 c 0.2055,-0.2909 0.424,-0.6089 0.6528,-0.9482 0.2219,-0.33 0.4189,-0.6066 0.5865,-0.8218 l 0.4005,-0.5162 -0.6508,0.055 c -0.2866,0.0238 -0.6279,0.0357 -1.0154,0.0357 h -4.0938 l -1.8828,-2.5903 h 13.2013 l -4.0819,5.9077 z m -7.2218,0 -4.1888,-5.9077 h 3.8033 l 4.1777,5.9077 z m -77.7379,-1.76 -1.9616,1.76 h -4.4325 l 6.1523,-5.521 c 0.267,-0.2554 0.5012,-0.4178 0.699,-0.4839 0.4292,-0.1423 0.8915,-0.14 1.3365,0.0088 0.2135,0.0712 0.4011,0.1874 0.559,0.3453 0.1616,0.1607 0.2946,0.373 0.396,0.6293 0.1024,0.259 0.1548,0.5768 0.1548,0.9425 v 4.079 h -2.9035 z m 10.3379,-4.1477 h 3.2341 v 5.9077 h -3.2341 z m -21.4843,0 h 2.8848 v 5.9077 h -2.8848 z m 80.2454,2.9092 c -0.2469,0.2342 -0.4739,0.432 -0.6761,0.5871 l -0.5045,0.3872 0.6244,0.1216 c 0.4678,0.091 0.891,0.2492 1.2592,0.4703 0.3682,0.2202 0.6831,0.4921 0.9363,0.8073 0.1531,0.1908 0.2789,0.4034 0.3897,0.625 H 91.2577 C 90.9122,38.7842 90.5264,38.7164 90.0975,38.7164 H 79.6788 v -5.7172 h 3.2337 v 3.2556 h 6.2697 l 2.7405,-3.2556 h 4.2954 l -1.8046,1.908 c -0.4184,0.4179 -0.7616,0.7552 -1.0193,1.0012 z M 7.0866,32.9992 h 3.0988 v 5.9077 H 7.0866 Z m 42.6254,4.8382 h 7.7069 l 0.8379,1.0695 H 46.4596 v -5.9077 h 11.4176 l 2.0041,2.5903 H 49.712 Z m 17.9864,0.1097 h 6.0395 V 35.5895 H 68.798 c -0.5545,0 -1.0726,0.0763 -1.5412,0.2254 -0.472,0.1508 -0.8901,0.3682 -1.2402,0.646 -0.3574,0.2835 -0.638,0.6285 -0.8336,1.0273 -0.1968,0.3997 -0.2963,0.8478 -0.2963,1.3311 0,0.0304 0.0097,0.0579 0.0102,0.0876 h -3.2221 c 0.0113,-0.8175 0.186,-1.5879 0.5281,-2.2881 0.3546,-0.7271 0.8504,-1.364 1.4737,-1.8944 0.6256,-0.5329 1.3842,-0.9578 2.2544,-1.2628 0.8722,-0.307 1.8363,-0.4624 2.867,-0.4624 h 8.1555 v 5.9077 h -8.456 z"></path><path id="path18" style="fill:#35312f;fill-opacity:1;fill-rule:nonzero;stroke:none" d="m 10.1854,53.8121 h 6.3233 c 0.4314,0 0.7818,0.1346 1.0607,0.413 0.2693,0.2789 0.404,0.6108 0.404,0.9796 0,0.3682 -0.1347,0.6917 -0.404,0.9613 -0.2611,0.2692 -0.6018,0.4039 -1.0332,0.4039 h -6.3508 z m 6.7003,5.282 c 1.2314,0 2.2283,-0.3772 2.9923,-1.1409 0.7633,-0.7642 1.1497,-1.6705 1.1497,-2.7218 0,-1.0593 -0.3864,-1.9854 -1.1497,-2.7661 -0.7818,-0.7818 -1.7796,-1.1681 -2.9923,-1.1681 H 10.1854 V 47.7575 H 7.0869 v 11.3366 z"></path><path id="path20" style="fill:#35312f;fill-opacity:1;fill-rule:nonzero;stroke:none" d="m 34.289,59.0941 c 1.1316,0 2.0489,-0.3509 2.749,-1.051 0.7098,-0.7096 1.0602,-1.5452 1.0602,-2.5064 0,-0.9706 -0.3504,-1.8145 -1.0602,-2.5421 -0.7001,-0.7098 -1.6083,-1.069 -2.7223,-1.069 h -0.7453 l 4.5808,-4.1678 h -4.2401 l -6.5032,6.4321 h 6.3692 c 0.3594,0 0.6556,0.1162 0.8983,0.3589 0.2335,0.2341 0.35,0.5119 0.35,0.8354 0,0.3319 -0.1165,0.6108 -0.3412,0.8353 -0.2243,0.2336 -0.5114,0.3507 -0.8802,0.3507 h -6.8627 v -8.8124 h -3.1172 v 11.3363 z"></path><path id="path22" style="fill:#35312f;fill-opacity:1;fill-rule:nonzero;stroke:none" d="m 51.0891,50.3184 c 0.5752,0.0082 1.0327,0.1709 1.3657,0.4665 0.3498,0.2963 0.5298,0.7098 0.5298,1.2306 v 2.8927 c -0.009,0.5301 -0.1888,0.9425 -0.5298,1.2393 -0.3509,0.3147 -0.7996,0.4672 -1.3657,0.4672 h -5.3178 c -0.5567,0 -1.0054,-0.1525 -1.3555,-0.4672 -0.3328,-0.305 -0.5125,-0.7186 -0.5307,-1.2393 v -2.9194 c 0,-0.5028 0.18,-0.9076 0.5307,-1.2039 0.3673,-0.314 0.8166,-0.4665 1.3555,-0.4665 z m -10.3204,5.0031 c 0,1.0239 0.3765,1.904 1.1316,2.6496 0.7634,0.746 1.7875,1.123 3.0719,1.123 H 51.88 c 1.3025,0 2.3264,-0.377 3.0713,-1.123 0.7549,-0.7359 1.1327,-1.6079 1.1327,-2.6232 V 51.503 c 0,-0.9791 -0.3778,-1.8496 -1.1406,-2.6042 -0.764,-0.7634 -1.7793,-1.141 -3.0634,-1.141 h -6.9078 c -1.2662,0 -2.2816,0.3776 -3.0631,1.141 -0.7639,0.7628 -1.1404,1.6347 -1.1404,2.6317 z"></path><path id="path24" style="fill:#35312f;fill-opacity:1;fill-rule:nonzero;stroke:none" d="m 201.9504,24.0188 2.2331,3.7834 2.2408,-3.7834 z m 3.6731,6.194 h -2.8066 l -5.5468,-9.2724 h 2.8652 l 0.7937,1.3666 h 6.509 l 0.8007,-1.3666 h 2.9319 z m -11.986,-9.2724 h 2.5271 v 9.2724 h -2.5271 z m -4.7911,5.8481 h -5.0987 c -0.2064,0 -0.3898,0.0735 -0.5443,0.2129 -0.1321,0.1466 -0.2055,0.3093 -0.2126,0.485 0.007,0.2129 0.0805,0.3816 0.2126,0.5148 0.1398,0.1389 0.3096,0.2129 0.5072,0.2129 h 6.8842 l 0.6976,1.9987 h -7.8534 c -0.9184,0 -1.6381,-0.2645 -2.1745,-0.8008 -0.5584,-0.5519 -0.8379,-1.2056 -0.8379,-1.9774 0,-0.7782 0.2795,-1.4539 0.8379,-2.0195 0.5585,-0.5663 1.285,-0.845 2.1745,-0.845 h 5.349 c 0.227,0 0.411,-0.081 0.5646,-0.2432 0.1551,-0.1545 0.2356,-0.3449 0.2356,-0.5655 0,-0.2205 -0.0805,-0.411 -0.2421,-0.5734 -0.1618,-0.1608 -0.3603,-0.2418 -0.5953,-0.2418 h -7.5089 l -0.6979,-2.0058 h 8.3024 c 0.911,0 1.6528,0.2942 2.2334,0.8807 0.5731,0.5817 0.8592,1.2787 0.8592,2.0869 0,0.7795 -0.2861,1.4553 -0.8592,2.0358 -0.5584,0.5655 -1.3008,0.8447 -2.2334,0.8447 z m -17.7957,-2.7697 2.234,3.7834 2.2405,-3.7834 z m 0.8674,6.194 -5.5471,-9.2724 h 2.8656 l 0.7931,1.3666 h 6.5092 l 0.8011,-1.3666 h 2.9316 l -5.5472,9.2724 z m -9.9439,-2.0648 0.69,2.0648 H 152.1 v -9.2724 h 9.8742 l 0.69,2.0642 h -8.0368 v 1.6602 h 6.8176 l 0.6318,1.889 h -7.4494 V 28.148 Z M 147.117,24.3496 c 0.911,0 1.6529,0.2931 2.2263,0.8742 0.58,0.5947 0.8666,1.2855 0.8666,2.0792 0,0.7861 -0.2866,1.4701 -0.8666,2.0498 -0.5734,0.5734 -1.3229,0.86 -2.249,0.86 h -8.5584 v -9.2724 h 2.5487 v 7.2076 h 5.6134 c 0.3016,0 0.5369,-0.0955 0.72,-0.2868 0.184,-0.1834 0.2792,-0.4116 0.2792,-0.6829 0,-0.265 -0.0952,-0.4921 -0.2857,-0.684 -0.199,-0.1979 -0.4416,-0.2931 -0.7353,-0.2931 h -5.209 l 5.319,-5.2608 h 3.4679 l -3.7474,3.4092 z m -13.1823,0.0513 c 0,-0.4119 -0.1462,-0.7421 -0.4325,-0.9845 -0.2872,-0.2568 -0.6543,-0.3826 -1.1101,-0.3826 h -3.0557 c -0.4419,0 -0.809,0.1258 -1.1098,0.3826 -0.2866,0.2424 -0.4331,0.5726 -0.4331,0.9845 v 5.8119 h -2.5501 v -6.1869 c 0,-0.8153 0.3087,-1.5285 0.9332,-2.1529 0.6395,-0.6234 1.4698,-0.9326 2.5058,-0.9326 h 4.3498 c 1.0499,0 1.8805,0.3092 2.5044,0.9326 0.6253,0.6244 0.9334,1.3376 0.9334,2.1529 v 6.1869 h -2.5353 z m -18.6712,0 c 0,-0.4119 -0.1468,-0.7421 -0.4334,-0.9845 -0.2866,-0.2568 -0.6537,-0.3826 -1.1095,-0.3826 h -3.0557 c -0.4417,0 -0.8091,0.1258 -1.1098,0.3826 -0.2866,0.2424 -0.4331,0.5726 -0.4331,0.9845 v 5.8119 h -2.5501 v -6.1869 c 0,-0.8153 0.3087,-1.5285 0.9332,-2.1529 0.6389,-0.6234 1.4697,-0.9326 2.5058,-0.9326 h 4.3498 c 1.0499,0 1.8799,0.3092 2.5044,0.9326 0.6253,0.6244 0.9334,1.3376 0.9334,2.1529 v 6.1869 h -2.535 z M 94.6698,20.9404 h 2.5345 v 3.3355 h 6.0757 l 0.6908,2.0642 h -6.7665 v 1.8079 h 7.2737 l 0.6899,2.0648 H 94.6698 Z"></path><path id="path26" style="fill:#35312f;fill-opacity:1;fill-rule:nonzero;stroke:none" d="m 230.6251,15.7385 v -3.5969 h -13.6225 c 0.1463,1.3689 0.5899,2.6621 1.3263,3.8846 0.7365,1.2226 2.1949,2.8463 4.3662,4.8711 1.7513,1.6333 2.8228,2.7425 3.2194,3.323 0.5332,0.8025 0.8022,1.5954 0.8022,2.3837 0,0.8685 -0.2311,1.5341 -0.6985,2.0013 -0.4626,0.4674 -1.1044,0.6987 -1.9213,0.6987 -0.8119,0 -1.4536,-0.2455 -1.9349,-0.7364 -0.4771,-0.4862 -0.7507,-1.298 -0.8263,-2.4356 l -3.8798,0.387 c 0.231,2.1432 0.9533,3.6819 2.171,4.6165 1.2178,0.9297 2.7377,1.3972 4.5644,1.3972 2.0015,0 3.5733,-0.5429 4.7205,-1.6237 1.1421,-1.0809 1.7133,-2.4262 1.7133,-4.036 0,-0.9156 -0.1653,-1.7841 -0.491,-2.6147 -0.3257,-0.8263 -0.845,-1.69 -1.5576,-2.5962 -0.4675,-0.6044 -1.3218,-1.4681 -2.5489,-2.596 -1.232,-1.1282 -2.0109,-1.874 -2.3366,-2.2467 -0.3303,-0.3683 -0.5947,-0.7317 -0.7974,-1.0809 z m 8.6286,16.7942 c 1.9636,0 3.4977,-0.7033 4.6066,-2.1099 1.3173,-1.6616 1.978,-4.4229 1.978,-8.2746 0,-3.8469 -0.6655,-6.6129 -1.9919,-8.2933 -1.0998,-1.3876 -2.6291,-2.0815 -4.5927,-2.0815 -1.9732,0 -3.564,0.76 -4.7721,2.2799 -1.2087,1.52 -1.8127,4.2338 -1.8127,8.1326 0,3.8279 0.6655,6.5846 1.9919,8.265 1.0998,1.3878 2.6291,2.0818 4.5929,2.0818 z m 0,-3.2287 c -0.4629,0 -0.8781,-0.1511 -1.2367,-0.4533 -0.3634,-0.2973 -0.6469,-0.8353 -0.845,-1.614 -0.2642,-1.0055 -0.3966,-2.7048 -0.3966,-5.0885 0,-2.3885 0.1182,-4.026 0.354,-4.9181 0.2362,-0.8921 0.5335,-1.487 0.8921,-1.7844 0.3589,-0.2974 0.7693,-0.4436 1.2322,-0.4436 0.4624,0 0.8779,0.1511 1.2413,0.453 0.3586,0.2976 0.6418,0.8356 0.8402,1.6143 0.2645,0.9961 0.3966,2.6903 0.3966,5.0788 0,2.3837 -0.1182,4.0215 -0.3541,4.9136 -0.2361,0.8921 -0.5334,1.4916 -0.892,1.7889 -0.3589,0.3022 -0.7696,0.4533 -1.232,0.4533 z m 21.7412,-13.5655 v -3.5969 h -13.6225 c 0.1463,1.3689 0.5899,2.6621 1.3264,3.8846 0.7364,1.2226 2.1948,2.8463 4.3662,4.8711 1.7509,1.6333 2.8224,2.7425 3.219,3.323 0.5335,0.8025 0.8025,1.5954 0.8025,2.3837 0,0.8685 -0.2313,1.5341 -0.6988,2.0013 -0.4623,0.4674 -1.1043,0.6987 -1.921,0.6987 -0.8118,0 -1.4536,-0.2455 -1.9352,-0.7364 -0.4768,-0.4862 -0.7503,-1.298 -0.826,-2.4356 l -3.8801,0.387 c 0.2313,2.1432 0.9536,3.6819 2.1714,4.6165 1.2177,0.9297 2.7377,1.3972 4.5643,1.3972 2.0013,0 3.5731,-0.5429 4.7203,-1.6237 1.1423,-1.0809 1.7135,-2.4262 1.7135,-4.036 0,-0.9156 -0.1653,-1.7841 -0.491,-2.6147 -0.3257,-0.8263 -0.845,-1.69 -1.5576,-2.5962 -0.4674,-0.6044 -1.3218,-1.4681 -2.5489,-2.596 -1.232,-1.1282 -2.0109,-1.874 -2.3366,-2.2467 -0.3305,-0.3683 -0.5947,-0.7317 -0.7977,-1.0809 z m 1.9304,1.7793 3.7667,0.4578 c 0.1179,-0.9626 0.4391,-1.6991 0.9629,-2.209 0.5241,-0.5097 1.1565,-0.7645 1.8978,-0.7645 0.7977,0 1.4678,0.3067 2.0151,0.9159 0.5432,0.6086 0.817,1.4297 0.817,2.4684 0,0.9771 -0.2597,1.7557 -0.7838,2.3269 -0.5238,0.5712 -1.1611,0.8592 -1.9162,0.8592 -0.4958,0 -1.0857,-0.0992 -1.7751,-0.2928 l 0.4298,3.153 c 1.0479,-0.0281 1.8456,0.2029 2.3978,0.6891 0.5522,0.4816 0.826,1.1284 0.826,1.9355 0,0.6842 -0.203,1.2271 -0.6089,1.6378 -0.4059,0.4059 -0.9439,0.6089 -1.6191,0.6089 -0.6656,0 -1.232,-0.2313 -1.6991,-0.6939 -0.4723,-0.4626 -0.7552,-1.1376 -0.8592,-2.0248 l -3.5682,0.6086 c 0.25,1.2367 0.6227,2.2235 1.1279,2.9645 0.5003,0.7364 1.2038,1.3169 2.1004,1.7419 0.8969,0.42 1.9069,0.6324 3.0209,0.6324 1.9072,0 3.4365,-0.6089 4.5882,-1.8315 0.9487,-1.0006 1.4252,-2.1336 1.4252,-3.3939 0,-1.7842 -0.9723,-3.2142 -2.9216,-4.2764 1.1613,-0.2503 2.0863,-0.8073 2.785,-1.6758 0.6939,-0.8683 1.0432,-1.9162 1.0432,-3.1434 0,-1.7795 -0.6514,-3.2992 -1.9494,-4.5549 -1.298,-1.2555 -2.9126,-1.8834 -4.8478,-1.8834 -1.8315,0 -3.3514,0.5287 -4.555,1.5908 -1.2084,1.0573 -1.9069,2.4404 -2.1005,4.1536"></path></g></svg> 